<mxfile host="app.diagrams.net" modified="2022-07-21T18:39:59.077Z" agent="5.0 (Windows NT 10.0; Win64; x64) AppleWebKit/537.36 (KHTML, like Gecko) Chrome/103.0.5060.134 Safari/537.36" etag="E54ePuvwhtjBI8NYik_w" version="20.1.3" type="github">
  <diagram id="gnG7Gqf1GcRMlEO-_0OX" name="Página-1">
    <mxGraphModel dx="1296" dy="1858" grid="1" gridSize="10" guides="1" tooltips="1" connect="1" arrows="1" fold="1" page="1" pageScale="1" pageWidth="827" pageHeight="1169" math="0" shadow="0">
      <root>
        <mxCell id="0" />
        <mxCell id="1" parent="0" />
        <mxCell id="F4BGXveo6ZFS1zHAMtfn-1" value="Receta" style="swimlane;childLayout=stackLayout;horizontal=1;startSize=30;horizontalStack=0;rounded=1;fontSize=14;fontStyle=0;strokeWidth=2;resizeParent=0;resizeLast=1;shadow=0;dashed=0;align=center;html=1;" parent="1" vertex="1">
          <mxGeometry x="100" y="60" width="160" height="120" as="geometry" />
        </mxCell>
        <mxCell id="F4BGXveo6ZFS1zHAMtfn-2" value="&lt;div&gt;- id_receta&lt;/div&gt;&lt;div&gt;- dificultad&lt;/div&gt;&lt;div&gt;- descripcion&lt;/div&gt;&lt;div&gt;- tiempo_total&lt;/div&gt;&lt;div&gt;- raciones&lt;br&gt;&lt;/div&gt;" style="align=left;strokeColor=none;fillColor=none;spacingLeft=4;fontSize=12;verticalAlign=top;resizable=0;rotatable=0;part=1;html=1;" parent="F4BGXveo6ZFS1zHAMtfn-1" vertex="1">
          <mxGeometry y="30" width="160" height="90" as="geometry" />
        </mxCell>
        <mxCell id="F4BGXveo6ZFS1zHAMtfn-3" value="Ingrediente" style="swimlane;childLayout=stackLayout;horizontal=1;startSize=30;horizontalStack=0;rounded=1;fontSize=14;fontStyle=0;strokeWidth=2;resizeParent=0;resizeLast=1;shadow=0;dashed=0;align=center;html=1;" parent="1" vertex="1">
          <mxGeometry x="537" y="60" width="160" height="120" as="geometry" />
        </mxCell>
        <mxCell id="F4BGXveo6ZFS1zHAMtfn-4" value="&lt;div&gt;- id_ingrediente&lt;/div&gt;&lt;div&gt;- nom&lt;br&gt;&lt;/div&gt;&lt;div&gt;- calorias&lt;br&gt;&lt;/div&gt;&lt;div&gt;- precio&lt;br&gt;&lt;/div&gt;" style="align=left;strokeColor=none;fillColor=none;spacingLeft=4;fontSize=12;verticalAlign=top;resizable=0;rotatable=0;part=1;html=1;" parent="F4BGXveo6ZFS1zHAMtfn-3" vertex="1">
          <mxGeometry y="30" width="160" height="90" as="geometry" />
        </mxCell>
        <mxCell id="F4BGXveo6ZFS1zHAMtfn-7" value="" style="endArrow=none;html=1;rounded=0;fontSize=12;startArrow=none;" parent="1" source="F4BGXveo6ZFS1zHAMtfn-8" target="F4BGXveo6ZFS1zHAMtfn-4" edge="1">
          <mxGeometry relative="1" as="geometry">
            <mxPoint x="323" y="131" as="sourcePoint" />
            <mxPoint x="483" y="131" as="targetPoint" />
          </mxGeometry>
        </mxCell>
        <mxCell id="F4BGXveo6ZFS1zHAMtfn-9" value="" style="endArrow=none;html=1;rounded=0;fontSize=12;exitX=0.5;exitY=0;exitDx=0;exitDy=0;" parent="1" source="F4BGXveo6ZFS1zHAMtfn-8" edge="1">
          <mxGeometry relative="1" as="geometry">
            <mxPoint x="327" y="202" as="sourcePoint" />
            <mxPoint x="401" y="95" as="targetPoint" />
          </mxGeometry>
        </mxCell>
        <mxCell id="F4BGXveo6ZFS1zHAMtfn-11" value="cantidad" style="ellipse;whiteSpace=wrap;html=1;align=center;fontSize=12;" parent="1" vertex="1">
          <mxGeometry x="354" y="54" width="100" height="40" as="geometry" />
        </mxCell>
        <mxCell id="F4BGXveo6ZFS1zHAMtfn-8" value="compone" style="shape=rhombus;perimeter=rhombusPerimeter;whiteSpace=wrap;html=1;align=center;fontSize=12;" parent="1" vertex="1">
          <mxGeometry x="354" y="108" width="95" height="51" as="geometry" />
        </mxCell>
        <mxCell id="F4BGXveo6ZFS1zHAMtfn-12" value="" style="endArrow=none;html=1;rounded=0;fontSize=12;" parent="1" source="F4BGXveo6ZFS1zHAMtfn-2" target="F4BGXveo6ZFS1zHAMtfn-8" edge="1">
          <mxGeometry relative="1" as="geometry">
            <mxPoint x="255" y="135" as="sourcePoint" />
            <mxPoint x="350" y="135" as="targetPoint" />
          </mxGeometry>
        </mxCell>
        <mxCell id="57UtTxDgeB9Be8BeN_id-1" value="0:N" style="text;html=1;strokeColor=none;fillColor=none;align=center;verticalAlign=middle;whiteSpace=wrap;rounded=0;" vertex="1" parent="1">
          <mxGeometry x="270" y="105" width="60" height="30" as="geometry" />
        </mxCell>
        <mxCell id="57UtTxDgeB9Be8BeN_id-4" value="0:N" style="text;html=1;strokeColor=none;fillColor=none;align=center;verticalAlign=middle;whiteSpace=wrap;rounded=0;" vertex="1" parent="1">
          <mxGeometry x="470" y="105" width="60" height="30" as="geometry" />
        </mxCell>
        <mxCell id="57UtTxDgeB9Be8BeN_id-5" value="Puedes tener creada la receta, pero no haber añadido ingredientes aún.&lt;br&gt;&lt;br&gt;Puedes tener un ingrediente añadido a tus ingredientes, pero no haberlo usado en ninguna receta." style="text;html=1;strokeColor=none;fillColor=none;align=center;verticalAlign=middle;whiteSpace=wrap;rounded=0;" vertex="1" parent="1">
          <mxGeometry x="214" y="-30" width="386" height="30" as="geometry" />
        </mxCell>
        <mxCell id="57UtTxDgeB9Be8BeN_id-6" value="" style="shape=image;verticalLabelPosition=bottom;labelBackgroundColor=default;verticalAlign=top;aspect=fixed;imageAspect=0;image=data:image/png,iVBORw0KGgoAAAANSUhEUgAAAeAAAABhCAYAAAAOT3JcAAAgAElEQVR4nO2dT2gb6f3/3/rRw0oQQldiHRAVSg6VmsMqGEMdxr54IXIhUBKDYyOrh126Ckm6xhD5YqxuJXzyUuMlTqNCKV1J3cRg74Ze7IXkEg2rgzFRDonUQyy0GOIwSggp0t7me/DveTIazT/9sWU5nxcYEs3M83yez/Nv5vPMPG+bLMsyCIIgCII4VP5ftw0gCIIgiPcRmoAJgiAIogvQBEwQBEEQXUBzAs5kMrDZbA1/o6OjqFQqh22jJURRRCKRQLFYRDAYRLFYbDs9vfIqj1UqFYyOjmr6SxTFtmw4LDrlMzXMN6IoNuQhiiJsNhvOnTuH6elpJBKJtvJKJBJtp8HsOqrtvFar4erVq8hkMj2T32HYfBDt97B9bQbrLwc5LjdT5k71t07RTXuKxSJmZ2dRq9WavtbwCTibzUKWZciyjEKhgBcvXuD27dstG2qVSqWCRCJhuUCVSgWpVArXrl1rKp9OVprSV7IsI51OI5FIHOhAflATpxGd8FmtVkMqlUI6ncbjx4/hcrk6ZN0+mUwGV69ebalDWEV5c9EO3ajD9xmj9nuU60IQBD62ZLNZBINBSJIEWZaxsbEBp9Ope223J6ej6tNO4fP5EAgEsL6+3vS1v7B6osfjweDgIERRRKVSMazwdqhUKgiFQvB6vZav2djYwPDwMJxOJ5xOJzY3N9u2QxAEbGxstHz96OgoUqkUCoUCBEFo256DxOfzdcRnVvNgEyOr4/n5+QPNm2gNu92OO3fudD0NMw6i/R6G3b3MUeuz3bZndHQUc3NzGB0dbW5ulDVIp9MyADmbzfLfqtWqHIlE5GAwKEuSJMuyLBcKBTkQCMgAGs6XZVmOx+P8WCAQkAuFguaxSCQiV6tVnof6GkmS5GAwyH9X2lCtVuVoNMrTLhQK8oULF+RCocD/HY1G+bXxeLyujMrflGSz2bp8lPbG43F+jNmmLrvW78o8WZkZSl+qfaV1ndInyvONfK5Hp3zG/Ka0lfmApfv48eO6Oo7H4/zPqLysbaTTaX6e8jr2b3X+1Wq1oZ2qbderWz3U7ZTVsV4dqtPMZrNyIBCQc7mcZh2q64alOTExIU9MTDT4QKtcahvNyszympiY4Nc9ePCA+5yl99e//pXbrG7DVupN3ZeV/SMej/M2c9jtV92fWDu14ut4PC5Ho1Hut2AwKBeLRZ6eehxRn6tsa0b+YajHJqPrtMqs1x+0+pge6r6nVW96Y5Sy3pTtjdlsNIYZ9TF1nWjVFfOdsm8oy2vkf+XYoraL+U6rvoyw/BJWuVxGLpeDIAhwOp0oFou4cuUKxsbGeMj1+vXrPNSQSCSwtraGQqGAarWKwcFBTE9P8/AyOyZJEkqlEr766ivY7XYsLCwgGAwiEongxx9/hMfjwdzcHLxeL6rVakMovFwu46efftINY+7t7eHEiRM8jL62tgZRFBEKhRCPxxGPx03vnkRRhCiKkCQJ1WoVu7u7pv5iT89+v5+nkUqleNjI7Xbjq6++ArD/1D89PY2VlRXIsoyVlRXuK73rnE4nlpeXceHCBdy7dw8+nw+iKGJ3dxfVahWyLGNsbAyrq6vWKrgDPmN1y8Lxw8PDDU8mH3zwAZaWlhCJRJBOpxvSMfKTFQRBQDqdRiQSwdLSEgBgaWmJ+7ZQKCCbzdatRTdbt8p2ms1mIQiCYR3Oz89DEATcvn2b+2hlZQW//e1vG+pQSa1Ww9LSEqLRKGRZxo0bN3D37l1+PJPJ8PpmtrP1u/X1dbjdbsiyzI+xcLnRdc+ePcPw8DBkWcb58+cbyv6vf/0Ly8vLqFarAMDrxkq91Wo1zM3NIRwO81CqcswAgFwuh+XlZd5+l5aWml5KaKX9qvvTr3/967rjRj4DgB9++AEzMzOoVqvwer344osvkMlkIEkSANRF0xYXF7kPBEHA3NwcarWaJf9oYXSdusysTen1h1bRqjeHw2HYvoH69iYIguEYZtTHlCjrSpIkiKJYV1ebm5s8z2w2i8XFRRSLxQY/FgoFxONxFItFVCoV3Lp1C4VCgeetbJt2ux3Dw8N4+PBhU34znICHhob4Qr/f78fY2BhvuFtbW8jn8xgZGQEADAwM8N/ZxDE4OAiPx8PDOawRKo85nU7ueK31UnbtwsICLl26BL/fj3w+z49LkoSTJ0/C4XBolqGvrw/j4+MAAJfLhVOnTjXlIAB4+PAhv/Gw2+0Ih8OGvrLZbFhcXMTy8jIPRzx8+BDhcJj/f3x8HE+fPkWlUkGhUADwbrJm4W+n02l4nRpBEHDnzh3Y7XbUajVLk4kWrfpMXY7R0VEEg8Gm8lb6GtgPLbUTXmLthy0DSJKEvb09zfz06tYKhUIBXq8X/f39AID+/n54vV7uk2vXrkEURbhcLgiCYGlZolwuY2dnh/et/v5+RCIRAPuD7qNHjxAOh2G327ntjx494oPC2toaisVinQ/YdcPDw/y6O3fuIBQKAdive5afFmNjY/D5fDw/1m+t1JtWeQYHB7G1tdWQPgCcOXPG1EdadKLPK7Hia6Vf3G4394XD4WhYTotEIrydjI+PY2dnB+Vy2ZJ/tGjmOrP+0Cqt1pu6vRmNYUbjJEPdvp1OZ0NdBYNBjI6OAthvH319fQD2/fjmzRt+zOfzYWhoiPvx9evX/GZAaaeS3d3dpm4YTV/CqlarvNNrOZZNPGxifP78OSRJwosXL+B2uxsMZCSTSTgcDthsNsRiMbx48YLfLSphb+a5XC6Ew2EUCgUEAgHLBWyXn3/+Gbu7u3Vld7lc+OUvf1l3HnvqY/5SNkjWkKampupuaJ49e8YjAF6vt+Emwuw6NcViEefOnYPNZsP58+exs7NzAB7RR10OrcHHCFbeVgdePRKJBPdfPB7nHU4rP626tUKpVKpr0w6HA8lkEqVSCQD4QBAMBi2/LChJEmw2G4/usMEdAKrVKkqlUt2N39DQEEqlEqrVKkKhEKLRKPx+P3/bvFgs8uuaqRclWr7S6iNWytMrmPm6WZTjosvlwocffgigdf80e51efzgKGI1heuOkknbatyRJuHv3LlwuF/dPLBbD8+fP4XQ6kclk6t5GV7/Y1kqepiFou92OmZkZBAIB/qiuRP327/z8PL/rNLobiEQiPMwgyzIeP36sGaJgoe94PM7v0g+TDz74AG63G8+fP+e/SZKE169fa57PwpPKsAcbONPpdJ2vWJm9Xq9mZza7Ts3q6ipfEnj8+DGGhoY66Alz1OVgncEqrLxKX7dLsVhENpvloaOvv/7aMD+jujXC6/U2tGlZlnmbLRaL+OabbyDLsuUvCVwuF2RZ5jdbyicCdnOj7n/KJ4JQKMR/Z2FBm83G66kVtHyl1UeslKdXsOLrZlCOi5Ik4dWrVwBa908z1xn1h6OA0RimN04qYXXVSvt2uVyYmJjgyyjKOQ3Yv4ne2NhoWNpgtJKnpTVgn8+HaDSKfD7P494DAwMIBAI85s2+HRZFkYeVc7kcyuUygP27LvZorzzGPudgn43oPTWxRru6uloXgna5XHjz5k1Ld6JWGRkZ4eE8AKZxfqfTifn5+boblpGREaRSKR46zmQy/Ps9FlJhIRblq/tG12nB/FQsFrG2ttZ+4ZuAlYMtNRQKhabfTh0ZGalbjmCfFAH7Tw4slMSWOaywt7fHB6fV1dW6kFuzdauH3+9HqVTC9vY2gHd38qIo8nW3P/zhD/j3v//N153N8Hg8OH36NA97sZtR4N2aUyqV4oN5IpHg/Uj96cmZM2fgdrvx4YcfYnh4uC4k18xnKqxu2KdkLNSqV2/KG3BWHhbS297eRi6XMwx5HwXMfN0synFxdXUVp0+fhsfjadk/zV5n1B+OAnpjmNE4yWB1pRwnUqkUD0kb4fF4cPLkST5+sbkpk8k05OVyufCb3/ymIepgFPXVwvJLWJcvX0YkEkEymcT6+jp8Ph/u3buHtbU12Gw2TE1NIZ1O87WF+fl5jI2N8RDY2toaXxNVHmMFWFhY4Osrw8PDPJwnSRKi0Sj//9OnTzExMcEryePx4Fe/+lVLd9UjIyOIxWKmHUkQhLpw3tu3b03DlGwdhr0kIAgCwuEwD28o14jZCyDXr1/nYeZYLAafz2d4Het4fr8foihifHwcuVwODocDS0tLuHbtGvdTpVLB5ORk2y9bGPmMlWNxcRE2mw23bt3CxMREU+mry5tKpXjbUJYvFArpri8PDAwgl8vh0qVLcLlcGBsb4+HDjz/+GKdOneLtxahujXzGbjKHhoaQyWQ06zAajaK/vx8zMzMA9vsQa//sJRl1HSpRRlNsNhump6cxODjIj4dCIbjdbh72FkWR++rmzZvY3d3l4TLld/Lq63Z3d3Hz5k1L9fPxxx/jk08+4WFAdp1RvanLk0qleBh3ZWVFM5qj5jDar7Iufvzxx7pjRr5uFjYuqNNp1T9m1ynL7PF4DPuDkkwm0/b3w0btWwujMcxonFSirCv2zoWV6Knaj8prfT4fYrEYHydcLhcuXrxYt8z46NEj/k6UVWyy3PtqSCzU240QdS9x//59+P1+SwMesQ/5bJ9arYaZmRkMDw93rZ8dh7pgE1q3v1u1QqVSwfr6Ov74xz9225QjT7FYxJdffolbt241tSxxLPaCHh0dxaNHjzq665Tetm+9+ler1bC3twePx9MxHx13yGdHB6qLw6dQKODs2bPdNqMn2NrawsWLF5t+J+BYTMDsDdNObpOpXIQ/Dn92ux2ff/55SyGz9xXy2dGB6uLwsfq53PtOsVhEPp/H5cuXm772WISgCYIgCKLXOBZPwARBEATRa9AETBAEQRBdgCZggiAIgugCmhNwIpHgW9cdBdSbdbBNDropCJ1IJDSF5ttJT688SpH4TunQtovSjqMmXn6cUNb9QdLtOmy1nN2wu1N1YrXPH0Wsbt4iimJXx+mjDj0BY/8tNqacYwU2+TX7hmA3hbF7gU6Kd3fC1++DmHgraO1yRRBasDGy2w8MR5VfdNuAVvD5fHj8+HFH0lLKKlqhVqvh/v37+Oyzz7gtnRAD74UP8/Ug8fLep1frsFft7nWaGa/Gx8fxj3/8A/39/fQZmQrTJ2Bl+Hd2dpZv7KC8o2HnMNUVdh47h4W02e+ZTIaHjvSUJdje0jabDd98803dMa0QtFLhQ3l3zs6dnZ3l+bHwOtOXzOfziMViPORjZBvbw5VtCKB8SmJhI+W1LDSWyWQQi8UQi8U0n8zUT2zK8hjtT8z2pFX6X/nEplTvYOex0Pnk5CS3VakVq+VHdVpzc3P8d3UYUNke1G1Fz15WFz/88AOuXLnCy2Bkjx5avlaqrCh9xMrEbGS2J5NJTXsYrN6VfcKoDSttZ+2EiSOw/JV1rn5i+OabbxqOtVKHeijr0KhsoihiamoKyWQSMzMzmmnr+Vrdr4xCrHplUJf54cOHdW3PKA+lXVo+NsKoP5qVVxkeV/fzt2/fcnuN/KGXhxq9tqW0h5WF2WHUXvT6srocRmm4XC789NNPfOwk3mE5BJ3L5fDZZ59BkiQEg8G6jclv376NFy9eoFAo4MGDB3jy5EnD9fl8HoFAALIs4/Lly5iZmUGpVIIkSVxZgjXUYrGIxcVFxONxyLKMjz76yPApM5FIYG1tDYVCgcv7qcXAnzx5goWFBb6R9+rqKt9bNBAIIB6PY2NjAw6Hw9C2ra0tnDhxQvdOTk/s2UzMXkmzIvF6IuZM/J2puAwPD9f5UUsMW09U3SwthpGotZG9WuLdVkTetVD72kjIWxAEZLNZJBIJVCoV3L59G4IgIBKJmIqJ6wm/szpktqvF64H9dvLRRx9BlmWk02kMDQ1hZGQEsiwjHo/X9a/NzU3873//0xRpb6YOm0GvbIIgIJ1OIxKJYGlpqaEfGPl6fX0dbreby3Z6vd46oXqGme+UZT5//nzdtXp5aAnR37p1y9Iaq1F/VJc3Go1qisTrsbi4yPuKIAiYm5truKmxKkTPMGovALhY/fz8vGF7sdKXmX+M6svpdOLs2bOmusbvI5Yn4MHBQXg8njq5p2q1ylVp2HG2K5WaQCDA1TmYqgtTUvF4PBgcHOQKFltbW8jn83xjayNhd6382UCkbKAsLzOpRDPbnj9/bqh7qif23AzNisTriWGrBazVflSLYT98+BDhcJhvpzY+Po6nT5+iUqmYpsUwE7U2slfLD3r2NEOhUIDX6+Ui6P39/fB6vbxMbMcfl8sFURQt6/UaCb9r1aGyTSrbidfrRTAY5L5V+yQQCPB81GLrzdRhM7Qqam8kmh4KhfjNp5FUpZnv1GVWYpYHu7Hx+Xz49ttvLW0daNQftfqF8nczIpEIb5fj4+PY2dlpeFI0a79qjNoLgDplIKP2Ui6XsbOzw33NltvUN6Nm9cXopMzocaHtl7AkScKLFy+almECgFgsBputXry8Wq3i+fPnCAQCTQlTK8XQY7EYXrx40ZbuqJ5tB02nReLNBKzV+U5NTfFQkt/vx7Nnz3hUQZmWnmykkah1M5jZ0wylUqmufSjrlDE+Po5AIID5+fmWNF61bDcTqLfKqVOneF9gGsZG+XbCZ61i1OaUSxiffPIJtDbh+/nnn9vynV4edrudv2jJ2oGV8LxZf2ymj2mhHDddLhc+/PDDhnOstF8lnWovkiTBZrMZjsNW23qn+sJxo+0J2OyJ0ggWYlYLXJ85cwb5fL6pQUMthq4nWt+ubQdNp0Xird44sHzT6XRduZkf1WnpPcGYiVpbxcyeZvB6vQ3tQ5ZlrurDwpN+v5+HottBqw47BRvwjPLthM9aRa/NMf1gZtuPP/6I06dPN1z/wQcftOw7szzYC1tMvL5UKmF9fd0wTbP+2EwfM0OSJLx69arhd7P2q0b58NFOe3G5XNxXelht6/T0q03bEzAL+TKRaSaAbAQL67IwhfqlqoGBAQQCAf6yw8bGhu4asFb+ym+GzVCH18xsO3PmzIE3pk6KxAPvwmFGfmT5plKpOlF19mIIS4ut2RUKBc20jEStm8XInmbw+/0olUrY3t4G8O6FFrZeywbhf/7znxAEoSOiHkqBerV4fbNsbm5yf5qJrXfKZ62iJ5r+3//+F8C7gXh7exvJZFIzjXZ9p5WH+vt5FsHRiuJo2aPXH7X6GPudTU5KcXj1i1/KdFdXV3H69OkGxSez9qsmn8/zkHM77YVp+bK09PYgsFpf9BTcSEe+A7527RpOnToFv99vKJTOYOEgr9cLl8sFv9+PwcFBLu7t8/mwsrLCw8AvX740THN+fh5jY2Pw+/08XGJVLJtN4LFYDOfOnUO5XDa0bWBgAG/fvm3pG0gjMXAlRiLxzcDE35n4tpkf1aLqi4uLWF5ehtPp5C+sLS4uwmaz4datW5iYmGhIw0jU2gy1eLeRPWYC7Upfsxe8lELe0WgUgiAgk8lgcXERMzMzsNvtuHbtGkRRRCaTaVpMXM+XavH6ZgkGg3j58iVsNnOR9nZ8ZpWBgQHkcjlcunSpYWLXE00PBAIIh8O8Tz98+BDxeFzzZrZV37H1R6081HY5HA643W7+naqR+LxRf1Snq/Q3UC8wrzU2Xrhwgb+xLIqi5ril5VPWfrUIBoN49OhR2+1Fqy+Hw+GGfM3qq1Kp4OnTp7o3Ae818gGQTqflQCAgFwqFg0i+q1SrVTkajfZk2SRJkicmJnrSdi2+//77Y1OWw4J8po0kSfLf//73bpvRNtlsVg4Gg7IkSd02hZPNZuVIJCJXq9Vum3LkaPsJWPndHXtKeP78ed2LAMcJu92O3//+91hdXe1ouuwliIP8c7lcuHv3Lr+T7+U/EmhvHvKZPiQ+f3CwN61pE45G2p6A7XY7ZmZmEAgEeKhzbW2tLgxz3DiI7dVkxUsQnfyLx+M8j0AggEKhcGB5HeYfCbQ3D/lMHxKfPxha3bb3fcEmyxrfAhAEQRAEcaCQGANBEARBdAGagAmCIAiiC9AETBAEQRBdgCZggiAIgugChhOwUoLL6t6pvUytVsPs7GydtGA7OwhpyZEpsSps3glbAGOReqUtatk29mckg3bUOGyf6e0SdNgo7VBKZb4vGJXZrD8aoWxPxWIRs7Ozx3osJA4HzQmYNVQmwSUr9k7V2v3muLC+vo5AINDUvrlHZeDttC19fX0NnywppQ4PCqs3JZ3iKNXfUeWoT+RGN0kHgc/nQyAQMN1HmiDM+IXWj+vr68jlcrh37x7/ltfpdGpqdx4XKpUKHj16hIWFBQDvZNTagW3+3i6dsAVA04IIasbHx/HFF1+gXC4f2ub+rXJUfNZNmHzc+8RhlXl0dBRzc3MYHR09tvsdEAdPwxNwrVbDo0ePLO1kxZ4etELUTBZsaWmJn3Pu3Dncv3+fhzeVIUIW9rx69So/Xx1CVIdGlXe97Njs7CzfmUsdMlVfr3zqKRQKcLvdvDMpQ06JRKLOLpYuE6ze3NzE0NBQw1OUOuSl3DXs3LlzyOfzlipJaQv7N0vHZrMhk8mY2gLUPym0aotWmlr1Aew/zeotX2hdJ4oipqamkEwmMTMzg1qtVmenVps4ij5j583Ozmq2dWaf0jfKsPHk5GTD7nJGvlSmNTc3x39XP7mq+6uyvHptnInB//DDD7hy5QpPy8geI4xsUJaD1ZGyHLOzsw1tJpPJIBaLIRaLIZFINJRZ2ec//fRTvHnzpqGe9NqWso2qBVHYnsdWdX8JQouGCZjJzJlpXFYqFYRCIXi9XlSrVS7HpQ5RF4tFfPfdd8hms8jn8/jb3/6GBw8eIJvNYnNzs0F5plQqIZPJcAmsubk5vi555coVjI2N8ZC4KIoNnf/JkydYWFjgHYNtGam+Pp1O4/r163UKJ0ZqHblcDsvLy3WhWGBf9CEYDCKbzZru9sJCVtVqFQ8ePMCTJ08Mz9djc3MTw8PDkGUZ2WwWi4uLKJfLB26LWq0lk8lgd3eX1//u7i4fNEVRRCqV4ksYbrcbX331leF1giAgnU4jEolgaWkJdrsd6+vrcLvdkGUZ1WoVXq+3pSfbbvjsyZMnePDgAbebtXV2U5fNZiHLMoaHh+ue2p49e8ZtFQTB0JdmaTHYzUY4HIYsyygUCojH43U3qFptnAlZXLhwAffu3YPP5zO0xwgjGyqVCm7dusWXPbLZbJ1Kz97eHk6cOMGvW1tbgyiKCIVCiMfjiMfjDdEKJjMZjUYhyzJu3LiBu3fv1tWnXtsSRZEvwbE2qsRut2N4eLhlpTKCANp4C5rJ0bE9PpkSyebmZt1dIROcdrlcCAQCXKaK/V8NO66WGWSSWOPj4wD2Q+LhcJgfV1+v1ine2tpCPp/HyMgIAHBljq2tLa6ZaSRNNjY2xsOurchqscjC8PAw7HY7t78VgsEgRkdHAezLKfb19XXclr29vYY9o5VqLSwNdf0z6bWHDx/WSZLNz89jfn7e9Do1oVCID6x6GsRWOAyfqQmHw1xVRimKzvoHk7IbHR2tU8np6+urU45he+kqFXaePn2KSqVimhajXC7jzZs33Ac+nw9DQ0O8XwHW27iRPUaUy2Xs7OzwsrFwsc/ng9PpxLfffsvzV9dzX18f7/tqCVGr+fX39yMSifDjRm1L2X5ZG9WiFR10gmA0TMBMJ9NMZNpoIFQea0cD8syZM8jn85AkSVeDlx23Ctuv2u/3I5/PH5pQtDKywLCiRdotW5QvYUmShGAwWDfosjSYP222femzUqmEV69eYXd3V7Puja7Tam/KsOQnn3yCbu2c2sn6sxJhYrCbw6mpKe4Hv9+PZ8+e8RcjlWmx/qtGkiTcvXuXy87ZbDbEYrGm27+ZPUZIksRFQbTSVYaD//Of/zRll5X81DdCem2LlVHZfl0uV4MkaLf6L3F8aJiAWWjlxYsXhh3KqPF1qmE+f/4cgUAALpdLdyJnx63CQnXs77BeslHe2DBafZo7bFuUWsBqQXO1Pzc2NuB2u+F2uzUHd6Pr1C+zMHHvdDoNWZbx448/4vTp0x3yQnN0sv6s3OAy2KTBfMD+Hj9+DJ/P15CWXpTA5XJhYmKCh41bbf9m9hjhcrn4DZ2a7e1tlEolbt+f/vSnpuyykh+bWNm/9doWK6Oy/UqShNevX9el363+SxwfNEPQly9fxuDgIKanp3lYib08wV5U8Pv9CAaDSKVS/GWZVCqFYDDIw2GtsLa2xteERFHE4OAgPB4PDyOxNd1KpYJUKsWPmzEwMIBAIMDXbNhLJKIo8g53kB2K3diwdS0W0uwGrdji8/kQjUaRSCRQqVTq0mAhOPYiT61Ww8jICERR5O2HfV4EwPA6LdhAuL29jWQy2REfNEsn64/1DxY+3tjYMHxzd2RkpG49NJPJ1PVDlgZLUystj8eDkydP8vNYf27lm1gje4zweDw4ffo0D3urPwFjN/1sLGkXlh8bM8rlMnK5XN05em1rZGSEj0UAdNd62RIbQbSC5gTMPp8RBIGHrFwuF7xeL7777ju+RpvJZFAqleBwOHgIjB1vlQsXLmBpaYk/1bI1R5/Ph3v37mFtbY3bIwgC7ty5Y6kDqK+fmppCOp3mL96MjIy0FI5ma9VDQ0Omg1koFOI+dTgcDeGwdr9/7ZQterD1Q/ZiXCgUgtvthsPhaFgjFgQB4XCYt59UKsWPGV03MDCAXC6HS5cuoVqtIhwOIxaL8TdR4/E4r6de8JlenvPz8zwM//LlS811W4bal4uLi1zuUxmdsNlsuHXrFiYmJhrSsNvtWFhYQCqVqus/oVDI1F42kfn9foiiaGhPpVLB5OSk5jfDWjaEw2EIgoD+/n4MDg7C7/fj/Pnz+N3vfqf7tKxmZGQEsVgMV69exc8//9yQHws1T09PY3BwkB8zaluCICAajfL3IN6+fVsXgmY3YOydEoJoCfmIUCgU5EAgIMfj8a7kL0mSHIlEZEmSOpYmAEt/sizL1WpVTiaTcrVa7Vj+x53j4jNJkuSJiQm5UCh025SO8P333x+bsuhRKLYqr2EAAAlKSURBVBTkiYmJjo4XxPsH7QX9/3E6nRgeHu7oZiOyRXF5YD881tfXR+GsJuhVn7FvfVnIdmNjA69fv27qXYajSq1Ww97enqVloV5ma2sLFy9epE04iLbQ3AnrfeXy5cv485//jIGBgUPf6cnn8x353aWOGr3qM5/Ph7Nnz/IJNxAI1O0618vY7XZ8/vnn3TbjQCkWi8jn8/jLX/7SbVOIHscms0cwgiAIgiAODQpBEwRBEEQXoAmYIAiCILoATcAEQRAE0QV6fgI20gJVi2j3usi8Fdg3j0elXMo6aIb3pb4Ignh/6fkJuBm6JTJ/WILmyu31rGwNeNTpVn2xXbtok32CIA6Snp+AmcpOq4yPj2NnZ6dOUanXOUqbxAuCoLnPc6scx/oiCOL9pOcnYHUI2khE2ypGYuPK0Kg6HKolMq8laG5VZJ6dx9JlaWrZUKvVMDMzg2QyiaGhIcNz2e/NCL/ridqr60JdfnUIWk90vR208mUY1aWevVNTU0gmk5iZmeH7nFupL4IgiGbo+QlYiZmIthZqkXkz8fPp6WmsrKxAlmWsrKxwwQo9kXm2V69S0LxZkXmW7vz8vK4N1WoVS0tLiEQiSKfThueyyaMZ4XdAW9SeTeh65VdiJrpuBXV9GeVrVB696wRBQDqdRiQSwdLSEux2e9P1RRAEYYVjNQGbiWibicyzNKyKn7PwqsPhOFCReSYCD+yr3Xi9XvT39wPYFxn3er3cNiVm5zYj/A7oi9qrxeqZmId6o38z0XU1ZvXF8tXzu7I9AO+WK8yuU9NsfREEQVjh2EzAVkS0zUTmmxU/ZxymyHypVEIymeRKQg6HA8lkUnNSaObcdoTWtcTqtWhWdN2svoz8/urVq4b2oLb3MOqLIAhCj2MzAVsV0WZoicw3K37OOEyRea/Xi0gkgmq1WpeXlqxcM+e2I7SuJVavRTui61r1ZeR3t9vd0B7U9h5GfREEQehxbCZgwLqINkMtMs/SMBM/ZyFc9nlRuVw+NJF5v9+PUqmE7e1tbsO5c+f4pNTquWZlN4KJ1StDuHrfZ7cjuq6uL5avnt9HRkYgimJdea5evQoAh1ZfBEEQehyrCdhMRFsLtci8FfHz69ev8xBtLBaDz+czFJlXCppvb28bCoGboWVDNBqFIAhtncv8p1d2M9Tl393dxc2bN+vOaUd0naGuLyO/q8uTSqX4MaPrBgYGkMvlcOnSJVSr1bbqiyAIQg9SQyIIgiCILnCsnoAJgiAIolegCZggCIIgugBNwARBEATRBWgCJgiCIIguQBMwQRAEQXQBmoAJgiAIogv0/ASst+EDUK/EU6lUMDo6qrsJxWHBtmPMZDJ1/+4VmB87pWTULq1qLR8V3/d6eyAIonV6fgImcKg3FxsbG/B6vahWq5pbWhLd56jcbBIEYcwvum1AuzCVml6EqQb1Gm63m6szdRufz4fNzc1um9ERerU9EATRGj3/BKwOQStF1o32gmZ7/7JwqlKsHqhXwGHniaLIw4QsH5a3kfA724PZZrPh008/xZs3bwBoh0H1xOX17K3Vapibm8Pm5iaGhob4U4+RPWo/zM7O4ty5c/w8ZZiZbdPI0pyamkIsFmsI7avP1fOT0hdKn7NQ8uzsrGb59XyjDkEr09dKo9X2oEx3cnISk5OTdWFjq+U86u2BIIjDo+cnYCWiKEIURUiSxEXWjcjlclheXoYsyxgbG8PS0hKfgBKJBFfLGR4ebnjKYmLu8/PzhsLvtVoNS0tLiEajkGUZN27cwN27dzXtMRO117IXABYWFhAMBpHNZiEIgqE9Wjx58gQPHjzgT19zc3MIh8OQZRmFQgHxeBzFYhGhUIiL1X/33XdwOBy652r5qVKpYHp6GisrK5BlGSsrK5ienuZiCXt7ezhx4gRPa21trW4CMfKN0tcs/UKhgGw2a3l9WK89WKlDq+XshfZAEMThcKwmYKUAOxNZN2JsbIxL7Sl1Y5naEVM/Gh0dRTAYrLuWic+zfPWE7MvlMnZ2drjwfX9/PyKRSIMtVkTi9ezV8oOePVooRevL5TLevHnDRQ98Ph+GhoawtbXVcJ2Vc5V+KhQK8Hq96O/v577wer3c3319fRgfHwewr+V86tSpOt+wtFioVr0GzX5nYhOSJGFvb0/XT2r0/GulDq2WsxfaA0EQh8OxmYCZoLxyIHK5XKZqSFowcXmHw2E5Xz0he0mSYLPZ4HK5ALzT3VXTrEh8q/aYIUkS7t69yxWEbDYbYrGYpvpPM+cC+35NJpNcgcjhcCCZTJrqCDPfeL1eU/uVIdt4PI6+vj7Ta8xQ16EZRuXstfZAEMTBcWwmYDaQKQd/SZLw+vXrptNi4vJWBjozIXuXy1UnuccGRDXNiMS3Y48ZLpcLExMTPFzJ/rRedmvmXGDfr5FIBNVqte58s7epmW/MJupisYhsNotCoQBZlvH111+bltcK6jo0w6icvdYeCII4OI7NBAzsC8qvra3xNT+jl7CMYKFnFhrd2NgwfNPWSMieaQGvrq4C2A9n5nK5hjTMxOWbwcgeMzweD06ePImNjQ0A7z5p0fo2tZlzgX2/lkolbG9vA3j3MpLZ5zLMN8rwq97333t7e3xyW11dbSoErQerQxZa397eRjKZ1D3fqJy91h4Igjg4jtUELAgCotEo/H4/bDYb3r5921II2ul0Yn5+nof/Xr582bAGrM5XT8jebrdjYWGBv1U9PT2NwcFBzXSMROLN7BUEAUNDQ8hkMob2mMHsTaVSPFQqCILmU2oz5zI7l5eXcf36dR4KjUajfM3WCLVvdnd3cfPmzbpzfD4fxsbGeL19/PHHOHXqVNuhVrvdjpmZGSwuLsJms+H+/fua67ZWytlr7YEgiIPDJsuy3G0jjjqVSgU3btzAl19+SWE7ArVaDTMzMwiHw5ZuHgiCILQ4Vk/AnaJYLGJycpKH6DY2NvD69WvLL+EQx4tKpYLJyUm+tLG9vY1cLkftgSCItuj5nbAOAp/Ph7Nnz/IBNhAI4N69exSye09xOp24ePEifzcAALLZLEVDCIJoCwpBEwRBEEQXoBA0QRAEQXQBmoAJgiAIogvQBEwQBEEQXYAmYIIgCILoAjQBEwRBEEQXoAmYIAiCILoATcAEQRAE0QVoAiYIgiCILkATMEEQBEF0AZqACYIgCKIL/B9I2g4B6Sp3ZAAAAABJRU5ErkJggg==;" vertex="1" parent="1">
          <mxGeometry x="161.5" y="210" width="480" height="97" as="geometry" />
        </mxCell>
      </root>
    </mxGraphModel>
  </diagram>
</mxfile>
